mtllib 低模球体模型.mtl

v -111.803398 55.901699 0.000000
v -86.023918 65.716400 62.499893
v -65.716423 106.331329 0.000000
v -65.716423 106.331329 0.000000
v -86.023918 65.716400 62.499893
v -20.307541 106.331375 62.499939
v -86.023918 65.716400 62.499893
v -34.549263 55.901768 106.331291
v -20.307541 106.331375 62.499939
v -65.716423 106.331329 0.000000
v -20.307541 106.331375 62.499939
v -0.000000 125.000000 0.000000
v 90.450844 55.901806 65.716316
v 53.165627 106.331390 38.627052
v 32.858109 65.716507 101.127068
v 32.858109 65.716507 101.127068
v 53.165627 106.331390 38.627052
v -20.307541 106.331375 62.499939
v 53.165627 106.331390 38.627052
v -0.000000 125.000000 0.000000
v -20.307541 106.331375 62.499939
v 32.858109 65.716507 101.127068
v -20.307541 106.331375 62.499939
v -34.549263 55.901768 106.331291
v 90.450844 55.901806 65.716316
v 106.331299 65.716492 -0.000140
v 53.165627 106.331390 38.627052
v 53.165627 106.331390 38.627052
v 106.331299 65.716492 -0.000140
v 53.165611 106.331360 -38.627186
v 106.331299 65.716492 -0.000140
v 90.450745 55.901752 -65.716499
v 53.165611 106.331360 -38.627186
v 53.165627 106.331390 38.627052
v 53.165611 106.331360 -38.627186
v -0.000000 125.000000 0.000000
v 90.450745 55.901752 -65.716499
v 32.858074 65.716446 -101.127129
v 53.165611 106.331360 -38.627186
v 53.165611 106.331360 -38.627186
v 32.858074 65.716446 -101.127129
v -20.307541 106.331375 -62.499939
v 32.858074 65.716446 -101.127129
v -34.549263 55.901768 -106.331291
v -20.307541 106.331375 -62.499939
v 53.165611 106.331360 -38.627186
v -20.307541 106.331375 -62.499939
v -0.000000 125.000000 0.000000
v -34.549263 55.901768 -106.331291
v -86.023918 65.716400 -62.499893
v -20.307541 106.331375 -62.499939
v -20.307541 106.331375 -62.499939
v -86.023918 65.716400 -62.499893
v -65.716423 106.331329 0.000000
v -86.023918 65.716400 -62.499893
v -111.803398 55.901699 0.000000
v -65.716423 106.331329 0.000000
v -20.307541 106.331375 -62.499939
v -65.716423 106.331329 0.000000
v -0.000000 125.000000 0.000000
v -111.803398 55.901699 0.000000
v -118.882027 -0.000000 38.627182
v -86.023918 65.716400 62.499893
v -86.023918 65.716400 62.499893
v -118.882027 -0.000000 38.627182
v -73.473152 -0.000000 101.127129
v -118.882027 -0.000000 38.627182
v -90.450745 -55.901752 65.716499
v -73.473152 -0.000000 101.127129
v -86.023918 65.716400 62.499893
v -73.473152 -0.000000 101.127129
v -34.549263 55.901768 106.331291
v -34.549263 55.901768 106.331291
v -0.000000 -0.000000 124.999985
v 32.858109 65.716507 101.127068
v 32.858109 65.716507 101.127068
v -0.000000 -0.000000 124.999985
v 73.473221 -0.000000 101.127068
v -0.000000 -0.000000 124.999985
v 34.549263 -55.901768 106.331291
v 73.473221 -0.000000 101.127068
v 32.858109 65.716507 101.127068
v 73.473221 -0.000000 101.127068
v 90.450844 55.901806 65.716316
v -90.450745 -55.901752 65.716499
v -32.858074 -65.716446 101.127129
v -73.473152 -0.000000 101.127129
v -73.473152 -0.000000 101.127129
v -32.858074 -65.716446 101.127129
v -0.000000 -0.000000 124.999985
v -32.858074 -65.716446 101.127129
v 34.549263 -55.901768 106.331291
v -0.000000 -0.000000 124.999985
v -73.473152 -0.000000 101.127129
v -0.000000 -0.000000 124.999985
v -34.549263 55.901768 106.331291
v -34.549263 55.901768 -106.331291
v -73.473221 -0.000000 -101.127068
v -86.023918 65.716400 -62.499893
v -86.023918 65.716400 -62.499893
v -73.473221 -0.000000 -101.127068
v -118.882088 -0.000000 -38.627052
v -73.473221 -0.000000 -101.127068
v -90.450844 -55.901806 -65.716316
v -118.882088 -0.000000 -38.627052
v -86.023918 65.716400 -62.499893
v -118.882088 -0.000000 -38.627052
v -111.803398 55.901699 0.000000
v -90.450844 -55.901806 -65.716316
v -32.858109 -65.716507 -101.127068
v -53.165627 -106.331390 -38.627052
v -53.165627 -106.331390 -38.627052
v -32.858109 -65.716507 -101.127068
v 20.307541 -106.331375 -62.499939
v -32.858109 -65.716507 -101.127068
v 34.549263 -55.901768 -106.331291
v 20.307541 -106.331375 -62.499939
v -53.165627 -106.331390 -38.627052
v 20.307541 -106.331375 -62.499939
v -0.000000 -125.000000 0.000000
v -34.549263 55.901768 -106.331291
v -0.000000 -0.000000 -124.999985
v -73.473221 -0.000000 -101.127068
v -73.473221 -0.000000 -101.127068
v -0.000000 -0.000000 -124.999985
v -32.858109 -65.716507 -101.127068
v -0.000000 -0.000000 -124.999985
v 34.549263 -55.901768 -106.331291
v -32.858109 -65.716507 -101.127068
v -73.473221 -0.000000 -101.127068
v -32.858109 -65.716507 -101.127068
v -90.450844 -55.901806 -65.716316
v 111.803398 -55.901699 0.000000
v 65.716423 -106.331329 0.000000
v 86.023918 -65.716400 -62.499893
v 86.023918 -65.716400 -62.499893
v 65.716423 -106.331329 0.000000
v 20.307541 -106.331375 -62.499939
v 65.716423 -106.331329 0.000000
v -0.000000 -125.000000 0.000000
v 20.307541 -106.331375 -62.499939
v 86.023918 -65.716400 -62.499893
v 20.307541 -106.331375 -62.499939
v 34.549263 -55.901768 -106.331291
v 34.549263 -55.901768 -106.331291
v 73.473152 -0.000000 -101.127129
v 86.023918 -65.716400 -62.499893
v 86.023918 -65.716400 -62.499893
v 73.473152 -0.000000 -101.127129
v 118.882027 -0.000000 -38.627182
v 73.473152 -0.000000 -101.127129
v 90.450745 55.901752 -65.716499
v 118.882027 -0.000000 -38.627182
v 86.023918 -65.716400 -62.499893
v 118.882027 -0.000000 -38.627182
v 111.803398 -55.901699 0.000000
v 111.803398 -55.901699 0.000000
v 86.023918 -65.716400 62.499893
v 65.716423 -106.331329 0.000000
v 65.716423 -106.331329 0.000000
v 86.023918 -65.716400 62.499893
v 20.307541 -106.331375 62.499939
v 86.023918 -65.716400 62.499893
v 34.549263 -55.901768 106.331291
v 20.307541 -106.331375 62.499939
v 65.716423 -106.331329 0.000000
v 20.307541 -106.331375 62.499939
v -0.000000 -125.000000 0.000000
v 111.803398 -55.901699 0.000000
v 118.882088 -0.000000 38.627052
v 86.023918 -65.716400 62.499893
v 86.023918 -65.716400 62.499893
v 118.882088 -0.000000 38.627052
v 73.473221 -0.000000 101.127068
v 118.882088 -0.000000 38.627052
v 90.450844 55.901806 65.716316
v 73.473221 -0.000000 101.127068
v 86.023918 -65.716400 62.499893
v 73.473221 -0.000000 101.127068
v 34.549263 -55.901768 106.331291
v -90.450745 -55.901752 65.716499
v -118.882027 -0.000000 38.627182
v -106.331299 -65.716492 0.000149
v -106.331299 -65.716492 0.000149
v -118.882027 -0.000000 38.627182
v -118.882088 -0.000000 -38.627052
v -118.882027 -0.000000 38.627182
v -111.803398 55.901699 0.000000
v -118.882088 -0.000000 -38.627052
v -106.331299 -65.716492 0.000149
v -118.882088 -0.000000 -38.627052
v -90.450844 -55.901806 -65.716316
v 34.549263 -55.901768 106.331291
v -32.858074 -65.716446 101.127129
v 20.307541 -106.331375 62.499939
v 20.307541 -106.331375 62.499939
v -32.858074 -65.716446 101.127129
v -53.165611 -106.331360 38.627186
v -32.858074 -65.716446 101.127129
v -90.450745 -55.901752 65.716499
v -53.165611 -106.331360 38.627186
v 20.307541 -106.331375 62.499939
v -53.165611 -106.331360 38.627186
v -0.000000 -125.000000 0.000000
v -90.450745 -55.901752 65.716499
v -106.331299 -65.716492 0.000149
v -53.165611 -106.331360 38.627186
v -53.165611 -106.331360 38.627186
v -106.331299 -65.716492 0.000149
v -53.165627 -106.331390 -38.627052
v -106.331299 -65.716492 0.000149
v -90.450844 -55.901806 -65.716316
v -53.165627 -106.331390 -38.627052
v -53.165611 -106.331360 38.627186
v -53.165627 -106.331390 -38.627052
v -0.000000 -125.000000 0.000000
v 111.803398 -55.901699 0.000000
v 118.882027 -0.000000 -38.627182
v 118.882088 -0.000000 38.627052
v 118.882088 -0.000000 38.627052
v 118.882027 -0.000000 -38.627182
v 106.331299 65.716492 -0.000140
v 118.882027 -0.000000 -38.627182
v 90.450745 55.901752 -65.716499
v 106.331299 65.716492 -0.000140
v 118.882088 -0.000000 38.627052
v 106.331299 65.716492 -0.000140
v 90.450844 55.901806 65.716316
v 90.450745 55.901752 -65.716499
v 73.473152 -0.000000 -101.127129
v 32.858074 65.716446 -101.127129
v 32.858074 65.716446 -101.127129
v 73.473152 -0.000000 -101.127129
v -0.000000 -0.000000 -124.999985
v 73.473152 -0.000000 -101.127129
v 34.549263 -55.901768 -106.331291
v -0.000000 -0.000000 -124.999985
v 32.858074 65.716446 -101.127129
v -0.000000 -0.000000 -124.999985
v -34.549263 55.901768 -106.331291
vt 0.000900 0.723204
vt 0.100720 0.762392
vt 0.000900 0.924560
vt 0.000900 0.924560
vt 0.100720 0.762392
vt 0.200540 0.924560
vt 0.100720 0.762392
vt 0.200540 0.723205
vt 0.200540 0.924560
vt 0.000900 0.924560
vt 0.200540 0.924560
vt 0.000900 0.999100
vt 0.400180 0.723205
vt 0.400180 0.924560
vt 0.300360 0.762393
vt 0.300360 0.762393
vt 0.400180 0.924560
vt 0.200540 0.924560
vt 0.400180 0.924560
vt 0.000900 0.999100
vt 0.200540 0.924560
vt 0.300360 0.762393
vt 0.200540 0.924560
vt 0.200540 0.723205
vt 0.400180 0.723205
vt 0.500000 0.762393
vt 0.400180 0.924560
vt -0.598020 0.924560
vt -0.498200 0.762393
vt -0.398380 0.924560
vt -0.498200 0.762393
vt -0.398380 0.723204
vt -0.398380 0.924560
vt 0.400180 0.924560
vt -0.398380 0.924560
vt 0.000900 0.999100
vt -0.398380 0.723204
vt -0.298560 0.762393
vt -0.398380 0.924560
vt -0.398380 0.924560
vt -0.298560 0.762393
vt -0.198740 0.924560
vt -0.298560 0.762393
vt -0.198740 0.723205
vt -0.198740 0.924560
vt -0.398380 0.924560
vt -0.198740 0.924560
vt 0.000900 0.999100
vt -0.198740 0.723205
vt -0.098920 0.762392
vt -0.198740 0.924560
vt -0.198740 0.924560
vt -0.098920 0.762392
vt 0.000900 0.924560
vt -0.098920 0.762392
vt 0.000900 0.723204
vt 0.000900 0.924560
vt -0.198740 0.924560
vt 0.000900 0.924560
vt 0.000900 0.999100
vt 0.000900 0.723204
vt 0.050810 0.500000
vt 0.100720 0.762392
vt 0.100720 0.762392
vt 0.050810 0.500000
vt 0.150630 0.500000
vt 0.050810 0.500000
vt 0.100720 0.276796
vt 0.150630 0.500000
vt 0.100720 0.762392
vt 0.150630 0.500000
vt 0.200540 0.723205
vt 0.200540 0.723205
vt 0.250450 0.500000
vt 0.300360 0.762393
vt 0.300360 0.762393
vt 0.250450 0.500000
vt 0.350270 0.500000
vt 0.250450 0.500000
vt 0.300360 0.276795
vt 0.350270 0.500000
vt 0.300360 0.762393
vt 0.350270 0.500000
vt 0.400180 0.723205
vt 0.100720 0.276796
vt 0.200540 0.237607
vt 0.150630 0.500000
vt 0.150630 0.500000
vt 0.200540 0.237607
vt 0.250450 0.500000
vt 0.200540 0.237607
vt 0.300360 0.276795
vt 0.250450 0.500000
vt 0.150630 0.500000
vt 0.250450 0.500000
vt 0.200540 0.723205
vt -0.198740 0.723205
vt -0.148830 0.500000
vt -0.098920 0.762392
vt -0.098920 0.762392
vt -0.148830 0.500000
vt -0.049010 0.500000
vt -0.148830 0.500000
vt -0.098920 0.276795
vt -0.049010 0.500000
vt -0.098920 0.762392
vt -0.049010 0.500000
vt 0.000900 0.723204
vt -0.098920 0.276795
vt -0.198740 0.237607
vt -0.098920 0.075440
vt -0.098920 0.075440
vt -0.198740 0.237607
vt -0.298560 0.075440
vt -0.198740 0.237607
vt -0.298560 0.276795
vt -0.298560 0.075440
vt -0.098920 0.075440
vt -0.298560 0.075440
vt -0.997300 0.000900
vt -0.198740 0.723205
vt -0.248650 0.500000
vt -0.148830 0.500000
vt -0.148830 0.500000
vt -0.248650 0.500000
vt -0.198740 0.237607
vt -0.248650 0.500000
vt -0.298560 0.276795
vt -0.198740 0.237607
vt -0.148830 0.500000
vt -0.198740 0.237607
vt -0.098920 0.276795
vt 0.500000 0.276796
vt 0.500000 0.075440
vt 0.599820 0.237608
vt -0.398380 0.237608
vt -0.498200 0.075440
vt -0.298560 0.075440
vt 0.500000 0.075440
vt 0.000900 0.000900
vt -0.298560 0.075440
vt -0.398380 0.237608
vt -0.298560 0.075440
vt -0.298560 0.276795
vt -0.298560 0.276795
vt -0.348470 0.500000
vt -0.398380 0.237608
vt -0.398380 0.237608
vt -0.348470 0.500000
vt -0.448290 0.500000
vt -0.348470 0.500000
vt -0.398380 0.723204
vt -0.448290 0.500000
vt -0.398380 0.237608
vt -0.448290 0.500000
vt -0.498200 0.276796
vt 0.500000 0.276796
vt 0.400180 0.237608
vt 0.500000 0.075440
vt 0.500000 0.075440
vt 0.400180 0.237608
vt 0.300360 0.075440
vt 0.400180 0.237608
vt 0.300360 0.276795
vt 0.300360 0.075440
vt 0.500000 0.075440
vt 0.300360 0.075440
vt 0.999100 0.000900
vt 0.500000 0.276796
vt 0.450090 0.500000
vt 0.400180 0.237608
vt 0.400180 0.237608
vt 0.450090 0.500000
vt 0.350270 0.500000
vt 0.450090 0.500000
vt 0.400180 0.723205
vt 0.350270 0.500000
vt 0.400180 0.237608
vt 0.350270 0.500000
vt 0.300360 0.276795
vt 0.100720 0.276796
vt 0.050810 0.500000
vt 0.000900 0.237607
vt 0.000900 0.237607
vt 0.050810 0.500000
vt -0.049010 0.500000
vt 0.050810 0.500000
vt 0.000900 0.723204
vt -0.049010 0.500000
vt 0.000900 0.237607
vt -0.049010 0.500000
vt -0.098920 0.276795
vt 0.300360 0.276795
vt 0.200540 0.237607
vt 0.300360 0.075440
vt 0.300360 0.075440
vt 0.200540 0.237607
vt 0.100720 0.075440
vt 0.200540 0.237607
vt 0.100720 0.276796
vt 0.100720 0.075440
vt 0.300360 0.075440
vt 0.100720 0.075440
vt 0.000900 0.000900
vt 0.100720 0.276796
vt 0.000900 0.237607
vt 0.100720 0.075440
vt 0.100720 0.075440
vt 0.000900 0.237607
vt -0.098920 0.075440
vt 0.000900 0.237607
vt -0.098920 0.276795
vt -0.098920 0.075440
vt 0.100720 0.075440
vt -0.098920 0.075440
vt 0.000900 0.000900
vt 0.500000 0.276796
vt 0.549910 0.500000
vt 0.450090 0.500000
vt -0.548110 0.500000
vt -0.448290 0.500000
vt -0.498200 0.762393
vt -0.448290 0.500000
vt -0.398380 0.723204
vt -0.498200 0.762393
vt 0.450090 0.500000
vt 0.500000 0.762393
vt 0.400180 0.723205
vt -0.398380 0.723204
vt -0.348470 0.500000
vt -0.298560 0.762393
vt -0.298560 0.762393
vt -0.348470 0.500000
vt -0.248650 0.500000
vt -0.348470 0.500000
vt -0.298560 0.276795
vt -0.248650 0.500000
vt -0.298560 0.762393
vt -0.248650 0.500000
vt -0.198740 0.723205
vn -0.724043 0.661694 0.194738
vn -0.724043 0.661694 0.194738
vn -0.724043 0.661694 0.194738
vn -0.491124 0.794654 0.356822
vn -0.491124 0.794654 0.356822
vn -0.491124 0.794654 0.356822
vn -0.408950 0.661694 0.628427
vn -0.408950 0.661694 0.628427
vn -0.408950 0.661694 0.628427
vn -0.268035 0.943522 0.194738
vn -0.268035 0.943522 0.194738
vn -0.268035 0.943522 0.194738
vn 0.471298 0.661694 0.583128
vn 0.471298 0.661694 0.583128
vn 0.471298 0.661694 0.583128
vn 0.187592 0.794655 0.577350
vn 0.187592 0.794655 0.577350
vn 0.187592 0.794655 0.577350
vn 0.102380 0.943522 0.315094
vn 0.102380 0.943522 0.315094
vn 0.102380 0.943522 0.315094
vn -0.038535 0.661694 0.748783
vn -0.038535 0.661694 0.748783
vn -0.038535 0.661694 0.748783
vn 0.700227 0.661694 0.268034
vn 0.700227 0.661694 0.268034
vn 0.700227 0.661694 0.268034
vn 0.607061 0.794655 -0.000000
vn 0.607061 0.794655 -0.000000
vn 0.607061 0.794655 -0.000000
vn 0.700227 0.661694 -0.268036
vn 0.700227 0.661694 -0.268036
vn 0.700227 0.661694 -0.268036
vn 0.331309 0.943522 -0.000000
vn 0.331309 0.943522 -0.000000
vn 0.331309 0.943522 -0.000000
vn 0.471298 0.661694 -0.583129
vn 0.471298 0.661694 -0.583129
vn 0.471298 0.661694 -0.583129
vn 0.187592 0.794655 -0.577350
vn 0.187592 0.794655 -0.577350
vn 0.187592 0.794655 -0.577350
vn -0.038535 0.661694 -0.748783
vn -0.038535 0.661694 -0.748783
vn -0.038535 0.661694 -0.748783
vn 0.102380 0.943522 -0.315094
vn 0.102380 0.943522 -0.315094
vn 0.102380 0.943522 -0.315094
vn -0.408950 0.661694 -0.628427
vn -0.408950 0.661694 -0.628427
vn -0.408950 0.661694 -0.628427
vn -0.491124 0.794654 -0.356822
vn -0.491124 0.794654 -0.356822
vn -0.491124 0.794654 -0.356822
vn -0.724043 0.661694 -0.194738
vn -0.724043 0.661694 -0.194738
vn -0.724043 0.661694 -0.194738
vn -0.268035 0.943522 -0.194738
vn -0.268035 0.943522 -0.194738
vn -0.268035 0.943522 -0.194738
vn -0.889698 0.330384 0.315094
vn -0.889698 0.330384 0.315094
vn -0.889698 0.330384 0.315094
vn -0.794654 0.187593 0.577350
vn -0.794654 0.187593 0.577350
vn -0.794654 0.187593 0.577350
vn -0.802608 -0.125624 0.583129
vn -0.802608 -0.125624 0.583129
vn -0.802608 -0.125624 0.583129
vn -0.574605 0.330384 0.748783
vn -0.574605 0.330384 0.748783
vn -0.574605 0.330384 0.748783
vn 0.024740 0.330385 0.943522
vn 0.024740 0.330385 0.943522
vn 0.024740 0.330385 0.943522
vn 0.303531 0.187593 0.934172
vn 0.303531 0.187593 0.934172
vn 0.303531 0.187593 0.934172
vn 0.306569 -0.125624 0.943522
vn 0.306569 -0.125624 0.943522
vn 0.306569 -0.125624 0.943522
vn 0.534573 0.330385 0.777868
vn 0.534573 0.330385 0.777868
vn 0.534573 0.330385 0.777868
vn -0.534572 -0.330384 0.777868
vn -0.534572 -0.330384 0.777868
vn -0.534572 -0.330384 0.777868
vn -0.303531 -0.187593 0.934172
vn -0.303531 -0.187593 0.934172
vn -0.303531 -0.187593 0.934172
vn -0.024740 -0.330384 0.943522
vn -0.024740 -0.330384 0.943522
vn -0.024740 -0.330384 0.943522
vn -0.306569 0.125624 0.943522
vn -0.306569 0.125624 0.943522
vn -0.306569 0.125624 0.943522
vn -0.574605 0.330384 -0.748783
vn -0.574605 0.330384 -0.748783
vn -0.574605 0.330384 -0.748783
vn -0.794655 0.187593 -0.577350
vn -0.794655 0.187593 -0.577350
vn -0.794655 0.187593 -0.577350
vn -0.802608 -0.125624 -0.583128
vn -0.802608 -0.125624 -0.583128
vn -0.802608 -0.125624 -0.583128
vn -0.889698 0.330384 -0.315094
vn -0.889698 0.330384 -0.315094
vn -0.889698 0.330384 -0.315094
vn -0.471298 -0.661694 -0.583128
vn -0.471298 -0.661694 -0.583128
vn -0.471298 -0.661694 -0.583128
vn -0.187592 -0.794655 -0.577350
vn -0.187592 -0.794655 -0.577350
vn -0.187592 -0.794655 -0.577350
vn 0.038535 -0.661694 -0.748783
vn 0.038535 -0.661694 -0.748783
vn 0.038535 -0.661694 -0.748783
vn -0.102380 -0.943522 -0.315094
vn -0.102380 -0.943522 -0.315094
vn -0.102380 -0.943522 -0.315094
vn -0.306569 0.125624 -0.943522
vn -0.306569 0.125624 -0.943522
vn -0.306569 0.125624 -0.943522
vn -0.303531 -0.187593 -0.934172
vn -0.303531 -0.187593 -0.934172
vn -0.303531 -0.187593 -0.934172
vn -0.024740 -0.330385 -0.943522
vn -0.024740 -0.330385 -0.943522
vn -0.024740 -0.330385 -0.943522
vn -0.534573 -0.330385 -0.777868
vn -0.534573 -0.330385 -0.777868
vn -0.534573 -0.330385 -0.777868
vn 0.724043 -0.661694 -0.194738
vn 0.724043 -0.661694 -0.194738
vn 0.724043 -0.661694 -0.194738
vn 0.491124 -0.794654 -0.356822
vn 0.491124 -0.794654 -0.356822
vn 0.491124 -0.794654 -0.356822
vn 0.268035 -0.943522 -0.194738
vn 0.268035 -0.943522 -0.194738
vn 0.268035 -0.943522 -0.194738
vn 0.408950 -0.661694 -0.628427
vn 0.408950 -0.661694 -0.628427
vn 0.408950 -0.661694 -0.628427
vn 0.574605 -0.330384 -0.748783
vn 0.574605 -0.330384 -0.748783
vn 0.574605 -0.330384 -0.748783
vn 0.794654 -0.187593 -0.577350
vn 0.794654 -0.187593 -0.577350
vn 0.794654 -0.187593 -0.577350
vn 0.802608 0.125624 -0.583129
vn 0.802608 0.125624 -0.583129
vn 0.802608 0.125624 -0.583129
vn 0.889698 -0.330384 -0.315094
vn 0.889698 -0.330384 -0.315094
vn 0.889698 -0.330384 -0.315094
vn 0.724043 -0.661694 0.194738
vn 0.724043 -0.661694 0.194738
vn 0.724043 -0.661694 0.194738
vn 0.491124 -0.794654 0.356822
vn 0.491124 -0.794654 0.356822
vn 0.491124 -0.794654 0.356822
vn 0.408950 -0.661694 0.628427
vn 0.408950 -0.661694 0.628427
vn 0.408950 -0.661694 0.628427
vn 0.268035 -0.943522 0.194738
vn 0.268035 -0.943522 0.194738
vn 0.268035 -0.943522 0.194738
vn 0.889698 -0.330384 0.315094
vn 0.889698 -0.330384 0.315094
vn 0.889698 -0.330384 0.315094
vn 0.794655 -0.187593 0.577350
vn 0.794655 -0.187593 0.577350
vn 0.794655 -0.187593 0.577350
vn 0.802608 0.125624 0.583128
vn 0.802608 0.125624 0.583128
vn 0.802608 0.125624 0.583128
vn 0.574605 -0.330384 0.748783
vn 0.574605 -0.330384 0.748783
vn 0.574605 -0.330384 0.748783
vn -0.904988 -0.330384 0.268036
vn -0.904988 -0.330384 0.268036
vn -0.904988 -0.330384 0.268036
vn -0.982247 -0.187593 0.000001
vn -0.982247 -0.187593 0.000001
vn -0.982247 -0.187593 0.000001
vn -0.992078 0.125624 0.000001
vn -0.992078 0.125624 0.000001
vn -0.992078 0.125624 0.000001
vn -0.904988 -0.330385 -0.268034
vn -0.904988 -0.330385 -0.268034
vn -0.904988 -0.330385 -0.268034
vn 0.038535 -0.661694 0.748783
vn 0.038535 -0.661694 0.748783
vn 0.038535 -0.661694 0.748783
vn -0.187592 -0.794655 0.577350
vn -0.187592 -0.794655 0.577350
vn -0.187592 -0.794655 0.577350
vn -0.471298 -0.661694 0.583129
vn -0.471298 -0.661694 0.583129
vn -0.471298 -0.661694 0.583129
vn -0.102380 -0.943522 0.315094
vn -0.102380 -0.943522 0.315094
vn -0.102380 -0.943522 0.315094
vn -0.700227 -0.661694 0.268036
vn -0.700227 -0.661694 0.268036
vn -0.700227 -0.661694 0.268036
vn -0.607061 -0.794655 0.000000
vn -0.607061 -0.794655 0.000000
vn -0.607061 -0.794655 0.000000
vn -0.700227 -0.661694 -0.268034
vn -0.700227 -0.661694 -0.268034
vn -0.700227 -0.661694 -0.268034
vn -0.331309 -0.943522 0.000000
vn -0.331309 -0.943522 0.000000
vn -0.331309 -0.943522 0.000000
vn 0.992078 -0.125624 -0.000001
vn 0.992078 -0.125624 -0.000001
vn 0.992078 -0.125624 -0.000001
vn 0.982247 0.187593 -0.000001
vn 0.982247 0.187593 -0.000001
vn 0.982247 0.187593 -0.000001
vn 0.904988 0.330384 -0.268036
vn 0.904988 0.330384 -0.268036
vn 0.904988 0.330384 -0.268036
vn 0.904988 0.330385 0.268034
vn 0.904988 0.330385 0.268034
vn 0.904988 0.330385 0.268034
vn 0.534572 0.330384 -0.777868
vn 0.534572 0.330384 -0.777868
vn 0.534572 0.330384 -0.777868
vn 0.303531 0.187593 -0.934172
vn 0.303531 0.187593 -0.934172
vn 0.303531 0.187593 -0.934172
vn 0.306569 -0.125624 -0.943522
vn 0.306569 -0.125624 -0.943522
vn 0.306569 -0.125624 -0.943522
vn 0.024740 0.330384 -0.943522
vn 0.024740 0.330384 -0.943522
vn 0.024740 0.330384 -0.943522
o 球面 模型
g 球面
usemtl 默认 
f 1/1/1 2/2/2 3/3/3
f 4/4/4 5/5/5 6/6/6
f 7/7/7 8/8/8 9/9/9
f 10/10/10 11/11/11 12/12/12
f 13/13/13 14/14/14 15/15/15
f 16/16/16 17/17/17 18/18/18
f 19/19/19 20/20/20 21/21/21
f 22/22/22 23/23/23 24/24/24
f 25/25/25 26/26/26 27/27/27
f 28/28/28 29/29/29 30/30/30
f 31/31/31 32/32/32 33/33/33
f 34/34/34 35/35/35 36/36/36
f 37/37/37 38/38/38 39/39/39
f 40/40/40 41/41/41 42/42/42
f 43/43/43 44/44/44 45/45/45
f 46/46/46 47/47/47 48/48/48
f 49/49/49 50/50/50 51/51/51
f 52/52/52 53/53/53 54/54/54
f 55/55/55 56/56/56 57/57/57
f 58/58/58 59/59/59 60/60/60
f 61/61/61 62/62/62 63/63/63
f 64/64/64 65/65/65 66/66/66
f 67/67/67 68/68/68 69/69/69
f 70/70/70 71/71/71 72/72/72
f 73/73/73 74/74/74 75/75/75
f 76/76/76 77/77/77 78/78/78
f 79/79/79 80/80/80 81/81/81
f 82/82/82 83/83/83 84/84/84
f 85/85/85 86/86/86 87/87/87
f 88/88/88 89/89/89 90/90/90
f 91/91/91 92/92/92 93/93/93
f 94/94/94 95/95/95 96/96/96
f 97/97/97 98/98/98 99/99/99
f 100/100/100 101/101/101 102/102/102
f 103/103/103 104/104/104 105/105/105
f 106/106/106 107/107/107 108/108/108
f 109/109/109 110/110/110 111/111/111
f 112/112/112 113/113/113 114/114/114
f 115/115/115 116/116/116 117/117/117
f 118/118/118 119/119/119 120/120/120
f 121/121/121 122/122/122 123/123/123
f 124/124/124 125/125/125 126/126/126
f 127/127/127 128/128/128 129/129/129
f 130/130/130 131/131/131 132/132/132
f 133/133/133 134/134/134 135/135/135
f 136/136/136 137/137/137 138/138/138
f 139/139/139 140/140/140 141/141/141
f 142/142/142 143/143/143 144/144/144
f 145/145/145 146/146/146 147/147/147
f 148/148/148 149/149/149 150/150/150
f 151/151/151 152/152/152 153/153/153
f 154/154/154 155/155/155 156/156/156
f 157/157/157 158/158/158 159/159/159
f 160/160/160 161/161/161 162/162/162
f 163/163/163 164/164/164 165/165/165
f 166/166/166 167/167/167 168/168/168
f 169/169/169 170/170/170 171/171/171
f 172/172/172 173/173/173 174/174/174
f 175/175/175 176/176/176 177/177/177
f 178/178/178 179/179/179 180/180/180
f 181/181/181 182/182/182 183/183/183
f 184/184/184 185/185/185 186/186/186
f 187/187/187 188/188/188 189/189/189
f 190/190/190 191/191/191 192/192/192
f 193/193/193 194/194/194 195/195/195
f 196/196/196 197/197/197 198/198/198
f 199/199/199 200/200/200 201/201/201
f 202/202/202 203/203/203 204/204/204
f 205/205/205 206/206/206 207/207/207
f 208/208/208 209/209/209 210/210/210
f 211/211/211 212/212/212 213/213/213
f 214/214/214 215/215/215 216/216/216
f 217/217/217 218/218/218 219/219/219
f 220/220/220 221/221/221 222/222/222
f 223/223/223 224/224/224 225/225/225
f 226/226/226 227/227/227 228/228/228
f 229/229/229 230/230/230 231/231/231
f 232/232/232 233/233/233 234/234/234
f 235/235/235 236/236/236 237/237/237
f 238/238/238 239/239/239 240/240/240
